<?xml version="1.0" encoding="UTF-8"?>
<svg width="179px" height="303px" viewBox="0 0 179 303" version="1.1" xmlns="http://www.w3.org/2000/svg" xmlns:xlink="http://www.w3.org/1999/xlink">
    <!-- Generator: Sketch 44.1 (41455) - http://www.bohemiancoding.com/sketch -->
    <title>character2</title>
    <desc>Created with Sketch.</desc>
    <defs></defs>
    <g id="Page-1" stroke="none" stroke-width="1" fill="none" fill-rule="evenodd">
        <g id="Desktop" transform="translate(-442.000000, -288.000000)" fill-rule="nonzero">
            <g id="characters" transform="translate(242.000000, 288.000000)">
                <g id="character2" transform="translate(200.000000, 0.000000)">
                    <path d="M36.3748945,234.487363 L142.822831,234.487363 C142.822831,234.487363 153.467807,234.488579 153.467807,223.838131 L153.467807,64.0887138 L89.597951,0.190284267 L25.7299184,64.0887138 L25.7299184,223.838131 C25.7299184,223.838131 25.7299184,234.487363 36.3748945,234.487363" id="Shape" fill="#84E7AC"></path>
                    <path d="M68.3092147,302.144666 C67.3129443,302.144505 66.3575425,301.748584 65.6531869,301.044 C64.9488313,300.339416 64.553219,299.383887 64.5533802,298.387616 L64.5533802,223.838739 C64.5361641,222.485631 65.2481751,221.227874 66.4172163,220.546301 C67.5862576,219.864728 69.031564,219.864728 70.2006052,220.546301 C71.3696465,221.227874 72.0816574,222.485631 72.0644413,223.838739 L72.0644413,298.387616 C72.0647771,300.462005 70.3836032,302.143995 68.3092147,302.144666 M110.887903,302.144666 C109.891633,302.144505 108.936231,301.748584 108.231875,301.044 C107.52752,300.339416 107.131907,299.383887 107.132069,298.387616 L107.132069,223.838739 C107.114853,222.485631 107.826863,221.227874 108.995905,220.546301 C110.164946,219.864728 111.610252,219.864728 112.779294,220.546301 C113.948335,221.227874 114.660346,222.485631 114.64313,223.838739 L114.64313,298.387616 C114.643466,300.462005 112.962292,302.143995 110.887903,302.144666" id="Shape" fill="#84E7AC"></path>
                    <path d="M132.177855,90.7139206 C132.178017,92.1260159 131.617219,93.4803395 130.61883,94.4789557 C129.620442,95.4775719 128.266247,96.0386792 126.854151,96.0388404 C123.915384,96.0388404 121.532271,93.6557276 121.532271,90.7139206 C121.532271,87.7733296 123.915384,85.3883929 126.854151,85.3883929 C129.793527,85.3883929 132.177855,87.7733296 132.177855,90.7139206 M57.6648466,90.7139206 C57.6938776,92.6346348 56.6858143,94.4220024 55.0270968,95.3908378 C53.3683794,96.3596732 51.3163378,96.3596732 49.6576203,95.3908378 C47.9989028,94.4220024 46.9908395,92.6346348 47.0198705,90.7139206 C47.0198705,87.7733296 49.4029834,85.3883929 52.3423586,85.3883929 C55.2817337,85.3883929 57.6648466,87.7733296 57.6648466,90.7139206 M100.243535,97.9173656 L78.9541908,97.9173656 C77.91671,97.9173656 77.0756656,97.0763212 77.0756656,96.0388404 C77.0756656,95.0013596 77.91671,94.1603152 78.9541908,94.1603152 L100.243535,94.1603152 C101.281016,94.1603152 102.12206,95.0013596 102.12206,96.0388404 C102.12206,97.0763212 101.281016,97.9173656 100.243535,97.9173656" id="Shape" fill="#6D2D57"></path>
                    <path d="M4.43996623,216.945342 C2.36557777,216.944671 0.684403832,215.26268 0.684739657,213.188292 L0.684739657,181.238165 C0.684739657,162.815243 10.4968421,154.039674 18.7283085,149.922117 C27.4041768,145.581447 36.0119561,145.531596 36.3748945,145.531596 C38.4492829,145.532267 40.1304568,147.214258 40.130121,149.288646 C40.1301271,151.360052 38.4535892,153.040669 36.3821897,153.045697 C36.263642,153.046912 28.9532001,153.136887 21.8719505,156.75168 C12.7972755,161.38416 8.19580073,169.621706 8.19580073,181.238165 L8.19580073,213.187684 C8.19613656,215.262072 6.51496261,216.944063 4.44057416,216.944734 M174.756544,216.945342 C173.760273,216.945181 172.804871,216.549259 172.100516,215.844676 C171.39616,215.140092 171.000548,214.184562 171.000709,213.188292 L171.000709,181.238165 C171.000709,169.621706 166.399234,161.38416 157.323952,156.75168 C150.220208,153.125944 142.885449,153.046305 142.812496,153.046305 C140.740412,153.03559 139.067268,151.351029 139.070645,149.278919 C139.073996,147.209296 140.75199,145.532934 142.821616,145.531596 C143.183946,145.531596 151.792333,145.581447 160.468809,149.922117 C168.699668,154.039674 178.512378,162.815243 178.512378,181.238165 L178.512378,213.187684 C178.51254,214.183954 178.116927,215.139484 177.412572,215.844068 C176.708216,216.548651 175.752814,216.944573 174.756544,216.944734" id="Shape" fill="#84E7AC"></path>
                </g>
            </g>
        </g>
    </g>
</svg>