<?xml version="1.0" encoding="UTF-8"?>
<svg width="140px" height="254px" viewBox="0 0 140 254" version="1.1" xmlns="http://www.w3.org/2000/svg" xmlns:xlink="http://www.w3.org/1999/xlink">
    <!-- Generator: Sketch 44.1 (41455) - http://www.bohemiancoding.com/sketch -->
    <title>character3</title>
    <desc>Created with Sketch.</desc>
    <defs></defs>
    <g id="Page-1" stroke="none" stroke-width="1" fill="none" fill-rule="evenodd">
        <g id="Desktop" transform="translate(-642.000000, -335.000000)" fill-rule="nonzero">
            <g id="characters" transform="translate(242.000000, 288.000000)">
                <g id="character3" transform="translate(400.000000, 46.000000)">
                    <path d="M49.9335545,254.242199 C47.993374,254.241571 46.420968,252.668401 46.4212821,250.72822 L46.4212821,181.002477 C46.4212821,179.062389 47.9940346,177.489636 49.9341231,177.489636 C51.8742116,177.489636 53.4469641,179.062389 53.4469641,181.002477 L53.4469641,250.72822 C53.4469641,252.668715 51.874049,254.241885 49.9335545,254.242199" id="Shape" fill="#FFD87D"></path>
                    <path d="M0.153902389,71.4317471 L69.845529,1.70543559 L139.53943,71.4317471 L139.53943,121.235849 C139.53943,121.235849 139.53943,190.963867 69.8460976,190.963867 L0.153902389,190.963867 L0.153902389,71.4317471 Z" id="Shape" fill="#FFD87D"></path>
                    <path d="M109.670615,108.785108 C109.670615,111.536018 107.441116,113.766087 104.69248,113.766087 C101.942706,113.766087 99.7137751,111.536018 99.7137751,108.785108 C99.6946311,106.993812 100.639303,105.330333 102.187499,104.429113 C103.735695,103.527893 105.648695,103.527893 107.196891,104.429113 C108.745087,105.330333 109.689759,106.993812 109.670615,108.785108 M39.9778515,108.785108 C39.9778515,111.536018 37.7489203,113.766087 35.0008529,113.766087 C32.2510797,113.766087 30.0221485,111.536018 30.0221485,108.785108 C30.0218469,107.464476 30.5462543,106.197831 31.4799751,105.263897 C32.413696,104.329963 33.6802213,103.805266 35.0008529,103.805266 C37.7489203,103.805266 39.9778515,106.034198 39.9778515,108.785108 M69.845529,122.993407 C65.0908549,122.993407 62.8147296,120.433548 61.7412035,118.287064 C60.654031,116.110445 60.6227577,113.998646 60.6227577,113.76495 C60.6502628,112.816253 61.4262185,112.06088 62.3753111,112.058883 C63.3244038,112.056885 64.1035321,112.808986 64.1350301,113.757558 C64.1361673,113.804183 64.1691464,115.34624 64.9282339,116.805849 C65.8670006,118.604914 67.473878,119.479429 69.845529,119.479429 C72.2177486,119.479429 73.8257632,118.604914 74.7628241,116.80528 C75.5321465,115.330887 75.5571651,113.772341 75.5571651,113.75642 C75.5668077,112.792746 76.3492977,112.01583 77.313017,112.013078 L77.3221147,112.013078 C78.2877397,112.015898 79.0691283,112.79932 79.0694375,113.76495 C79.0694375,113.858201 78.9648142,122.993407 69.845529,122.993407" id="Shape" fill="#6D2D57"></path>
                    <path d="M79.8046436,244.281947 C78.1748779,244.281586 76.759102,243.161012 76.3844477,241.574894 C76.0097933,239.988776 76.7745313,238.353148 78.2318825,237.623584 C78.4041698,237.536018 96.2015027,228.334286 96.2015027,210.884939 C96.2015027,193.337792 78.410993,184.235565 78.2313139,184.145157 C76.4959476,183.27663 75.7927045,181.166138 76.6602586,179.430285 C77.0765682,178.596452 77.807262,177.962305 78.691397,177.667522 C79.575532,177.372739 80.5405851,177.441501 81.3739931,177.858661 C82.264997,178.305016 103.226616,189.041982 103.226616,210.884939 C103.226616,232.727327 82.264997,243.463156 81.3728559,243.909511 C80.8862517,244.154078 80.3492506,244.281611 79.8046436,244.281947" id="Shape" fill="#FFD87D"></path>
                </g>
            </g>
        </g>
    </g>
</svg>