<?xml version="1.0" encoding="UTF-8"?>
<svg width="179px" height="218px" viewBox="0 0 179 218" version="1.1" xmlns="http://www.w3.org/2000/svg" xmlns:xlink="http://www.w3.org/1999/xlink">
    <!-- Generator: Sketch 44.1 (41455) - http://www.bohemiancoding.com/sketch -->
    <title>character1</title>
    <desc>Created with Sketch.</desc>
    <defs></defs>
    <g id="Page-1" stroke="none" stroke-width="1" fill="none" fill-rule="evenodd">
        <g id="Desktop" transform="translate(-242.000000, -371.000000)" fill-rule="nonzero">
            <g id="characters" transform="translate(242.000000, 288.000000)">
                <g id="character1" transform="translate(0.000000, 82.000000)">
                    <path d="M52.0480255,157.079803 L168.731674,157.079803 C168.731674,157.079803 178.454895,157.079803 178.454895,147.352139 L178.454895,69.5252777 C178.454895,31.9157548 147.98188,1.42774578 110.389572,1.42774578 C72.7983752,1.42774578 42.3248046,31.9157548 42.3248046,69.5252777 L42.3248046,147.352139 C42.3248046,147.352139 42.3242493,157.079803 52.0485808,157.079803" id="Shape" fill="#61B1EB"></path>
                    <path d="M90.9431304,121.598848 L42.3253599,121.598848 C20.4804607,121.598848 10.0925134,109.98696 5.22396133,100.245413 C0.0588646647,89.9113328 0,79.6838749 0,79.2540518 C0.0226411021,77.3767111 1.55030723,75.8663799 3.42778412,75.8651641 C5.305261,75.8639482 6.83488208,77.3722994 6.85995475,79.2496092 C6.86217606,79.446195 6.97435212,88.5313451 11.4613945,97.376594 C17.3056561,108.894077 27.6891608,114.735006 42.3253599,114.735006 L90.9431304,114.735006 C92.8378774,114.735926 94.3733857,116.27218 94.3733854,118.166927 C94.3736922,120.061801 92.8380045,121.598235 90.9431304,121.598848 M100.666351,218.882147 C98.7714772,218.881534 97.2357895,217.3451 97.2360963,215.450226 L97.2360963,147.352694 C97.22037,146.116682 97.8707646,144.96777 98.9386388,144.345179 C100.006513,143.722588 101.326745,143.722588 102.394619,144.345179 C103.462493,144.96777 104.112888,146.116682 104.097162,147.352694 L104.097162,215.450226 C104.097309,216.360281 103.735932,217.233121 103.092531,217.876731 C102.449129,218.520341 101.576406,218.882 100.666351,218.882147 M129.836569,218.882147 C127.941695,218.881534 126.406008,217.3451 126.406314,215.450226 L126.406314,147.352694 C126.390588,146.116682 127.040983,144.96777 128.108857,144.345179 C129.176731,143.722588 130.496963,143.722588 131.564837,144.345179 C132.632711,144.96777 133.283106,146.116682 133.26738,147.352694 L133.26738,215.450226 C133.267527,216.360281 132.90615,217.233121 132.262749,217.876731 C131.619347,218.520341 130.746624,218.882 129.836569,218.882147" id="Shape" fill="#61B1EB"></path>
                    <path d="M139.560346,84.1181613 C139.586864,85.8726598 138.666037,87.5053514 137.150863,88.3903452 C135.635688,89.2753391 133.761227,89.2753391 132.246052,88.3903452 C130.730878,87.5053514 129.810051,85.8726598 129.836569,84.1181613 C129.836569,81.4314891 132.013451,79.2534965 134.698457,79.2534965 C137.383464,79.2534965 139.560346,81.4314891 139.560346,84.1181613 M71.495578,84.1181613 C71.495578,86.8048334 69.318696,88.9817153 66.6348005,88.9817153 C65.3449568,88.9817154 64.1079499,88.4692889 63.1959447,87.5571796 C62.2839396,86.6450704 61.7716544,85.4080049 61.7718017,84.1181613 C61.7718017,81.4314891 63.9486837,79.2534965 66.6348005,79.2534965 C69.318696,79.2534965 71.495578,81.4314891 71.495578,84.1181613 M100.665796,97.994673 C96.0221514,97.994673 93.798622,95.4945907 92.7507199,93.3982312 C91.6894899,91.2724393 91.6583916,89.2093994 91.6583916,88.9817153 C91.6583914,88.0344501 92.4259764,87.266368 93.3732415,87.2657548 L93.3743521,87.2657548 C94.3188045,87.2666647 95.0849793,88.0306058 95.0886466,88.9750514 C95.0897573,89.0205882 95.1219663,90.5260798 95.8633278,91.9516043 C96.7796174,93.7092143 98.3506376,94.5621966 100.665796,94.5621966 C102.98151,94.5621966 104.553085,93.7092143 105.467709,91.9504936 C106.218511,90.5105306 106.242945,88.9883793 106.244056,88.9733854 C106.25347,88.0321228 107.017601,87.2731888 107.958906,87.2701974 L107.967791,87.2701974 C108.911084,87.272952 109.674315,88.0384185 109.674311,88.9817153 C109.674311,89.0722336 109.57102,97.994673 100.665796,97.994673" id="Shape" fill="#6D2D57"></path>
                </g>
            </g>
        </g>
    </g>
</svg>