<?xml version="1.0" encoding="UTF-8"?>
<svg width="118px" height="25px" viewBox="0 0 118 25" version="1.1" xmlns="http://www.w3.org/2000/svg" xmlns:xlink="http://www.w3.org/1999/xlink">
    <!-- Generator: Sketch 44.1 (41455) - http://www.bohemiancoding.com/sketch -->
    <title>logo</title>
    <desc>Created with Sketch.</desc>
    <defs></defs>
    <g id="Page-1" stroke="none" stroke-width="1" fill="none" fill-rule="evenodd">
        <g id="Desktop" transform="translate(-50.000000, -50.000000)" fill-rule="nonzero">
            <g id="logo" transform="translate(50.000000, 50.000000)">
                <path d="M81.682243,12.3598131 L81.682243,12.8271028 L81.682243,22.7570093 L81.682243,24.2757009 C81.682243,24.6028037 81.9392523,24.8598131 82.2663551,24.8598131 L86.4018692,24.8598131 C86.728972,24.8598131 86.9859813,24.6028037 86.9859813,24.2757009 L86.9859813,22.8271028 L86.9859813,1.23831776 L81.682243,12.3598131 Z" id="Shape" fill="#692D55"></path>
                <path d="M0.58411215,24.8364486 C0.257009346,24.8364486 0,24.5794393 0,24.2523364 L0,0.607476636 C0,0.280373832 0.257009346,0.023364486 0.58411215,0.023364486 L4.71962617,0.023364486 C5.04672897,0.023364486 5.30373832,0.280373832 5.30373832,0.607476636 L5.30373832,24.2523364 C5.30373832,24.5794393 5.04672897,24.8364486 4.71962617,24.8364486 L0.58411215,24.8364486 Z" id="Shape" fill="#F53C3C"></path>
                <path d="M25.0700935,24.8364486 C24.7429907,24.8364486 24.4859813,24.5794393 24.4859813,24.2523364 L24.4859813,0.607476636 C24.4859813,0.280373832 24.7429907,0.023364486 25.0700935,0.023364486 L29.2056075,0.023364486 C29.5327103,0.023364486 29.7897196,0.280373832 29.7897196,0.607476636 L29.7897196,24.2523364 C29.7897196,24.5794393 29.5327103,24.8364486 29.2056075,24.8364486 L25.0700935,24.8364486 Z" id="Shape" fill="#F53C3C"></path>
                <path d="M50.8411215,24.8364486 C50.5140187,24.8364486 50.2570093,24.5794393 50.2570093,24.2523364 L50.2570093,0.607476636 C50.2570093,0.280373832 50.5140187,0.023364486 50.8411215,0.023364486 L54.9766355,0.023364486 C55.3037383,0.023364486 55.5607477,0.280373832 55.5607477,0.607476636 L55.5607477,24.2523364 C55.5607477,24.5794393 55.3037383,24.8364486 54.9766355,24.8364486 L50.8411215,24.8364486 Z" id="Shape" fill="#F53C3C"></path>
                <path d="M19.6261682,9.08878505 C19.6261682,9.01869159 19.6261682,8.97196262 19.6261682,8.90186916 L19.6261682,8.8317757 C19.4859813,3.97196262 15.4205607,0.023364486 10.5607477,0.023364486 L9.36915888,0.023364486 C9.04205607,0.023364486 8.78504673,0.280373832 8.78504673,0.607476636 L8.78504673,4.74299065 C8.78504673,5.07009346 9.04205607,5.3271028 9.36915888,5.3271028 L10.5373832,5.3271028 L10.911215,5.3271028 C10.9579439,5.35046729 11.0046729,5.35046729 11.0514019,5.37383178 C12.7803738,5.60747664 14.135514,7.05607477 14.2523364,8.80841121 L14.2523364,8.8317757 C14.2523364,8.90186916 14.2523364,8.9953271 14.2523364,9.06542056 L14.2523364,9.06542056 L19.6261682,9.08878505 L19.6261682,9.08878505 Z" id="Shape" fill="#692D55"></path>
                <path d="M11.0747664,12.7803738 C11.0280374,12.7803738 10.9579439,12.8037383 10.911215,12.8271028 L9.36915888,12.8271028 C9.04205607,12.8271028 8.78504673,13.0841121 8.78504673,13.411215 L8.78504673,17.546729 C8.78504673,17.8738318 9.04205607,18.1308411 9.36915888,18.1308411 L10.5607477,18.1308411 C15.5607477,18.1308411 19.6261682,14.0654206 19.6261682,9.06542056 L14.2990654,9.06542056 C14.2990654,10.9345794 12.8971963,12.5233645 11.0747664,12.7803738 Z" id="Shape" fill="#F53C3C"></path>
                <path d="M44.182243,9.08878505 L38.8551402,9.08878505 C38.8551402,10.9345794 37.4766355,12.5233645 35.6308411,12.7803738 C35.5841121,12.7803738 35.5140187,12.8037383 35.4672897,12.8271028 L33.9252336,12.8271028 C33.5981308,12.8271028 33.3411215,13.0841121 33.3411215,13.411215 L33.3411215,17.546729 C33.3411215,17.8738318 33.5981308,18.1308411 33.9252336,18.1308411 L35.1168224,18.1308411 C35.3504673,18.1308411 35.6074766,18.1308411 35.8878505,18.1074766 L38.9252336,24.4392523 C39.0186916,24.6495327 39.228972,24.7663551 39.4626168,24.7663551 L44.0420561,24.7663551 C44.2523364,24.7663551 44.4392523,24.6728972 44.5327103,24.4859813 C44.6495327,24.3224299 44.6495327,24.088785 44.5560748,23.9252336 L40.817757,16.0981308 C42.9672897,14.3925234 44.182243,11.8224299 44.182243,9.08878505 Z" id="Shape" fill="#692D55"></path>
                <path d="M44.2056075,9.08878505 C44.2056075,9.01869159 44.2056075,8.97196262 44.2056075,8.90186916 L44.2056075,8.8317757 C44.0654206,3.97196262 40,0.023364486 35.1401869,0.023364486 L33.9485981,0.023364486 C33.6214953,0.023364486 33.364486,0.280373832 33.364486,0.607476636 L33.364486,4.76635514 C33.364486,5.09345794 33.6214953,5.35046729 33.9485981,5.35046729 L35.046729,5.35046729 L35.1401869,5.35046729 C37.0794393,5.35046729 38.7149533,6.86915888 38.8551402,8.80841121 L38.8551402,8.8317757 C38.8551402,8.90186916 38.8551402,8.9953271 38.8551402,9.06542056 L38.8551402,9.06542056 L44.2056075,9.08878505 C44.182243,9.08878505 44.2056075,9.08878505 44.2056075,9.08878505 Z" id="Shape" fill="#F53C3C"></path>
                <path d="M101.565421,18.8317757 C100.607477,18.364486 99.7663551,17.6869159 99.088785,16.8457944 C96.6588785,13.7616822 97.1728972,9.27570093 100.257009,6.82242991 C102.383178,5.14018692 105.350467,4.81308411 107.803738,6.0046729 L110.116822,1.23831776 C105.841121,-0.817757009 100.67757,-0.257009346 96.9859813,2.6635514 C91.6121495,6.91588785 90.7009346,14.7429907 94.953271,20.1168224 C96.1214953,21.588785 97.5700935,22.7570093 99.2523364,23.5747664 L99.2757009,23.5747664 L101.565421,18.8317757 C101.565421,18.8551402 101.565421,18.8317757 101.565421,18.8317757 Z" id="Shape" fill="#F53C3C"></path>
                <path d="M117.009346,13.8785047 C117.383178,10.5841121 116.471963,7.3364486 114.415888,4.71962617 C113.247664,3.24766355 111.799065,2.07943925 110.116822,1.26168224 C110.116822,1.26168224 110.116822,1.26168224 110.093458,1.26168224 L107.780374,6.02803738 L107.780374,6.02803738 C108.738318,6.4953271 109.579439,7.1728972 110.257009,8.01401869 C112.686916,11.0981308 112.172897,15.5841121 109.088785,18.0373832 C106.962617,19.7196262 103.995327,20.046729 101.542056,18.8551402 L99.228972,23.6214953 C103.504673,25.6775701 108.64486,25.1168224 112.359813,22.1962617 C115,20.1168224 116.635514,17.1728972 117.009346,13.8785047 Z" id="Shape" fill="#692D55"></path>
                <path d="M74.3925234,15.2803738 L67.2663551,0.35046729 C67.2196262,0.280373832 67.1728972,0.210280374 67.1028037,0.140186916 L67.1028037,12.3130841 L67.3130841,12.7570093 L72.4065421,23.411215 C72.5,23.6214953 72.7102804,23.7383178 72.9439252,23.7383178 L75.864486,23.7383178 C76.0981308,23.7383178 76.3084112,23.5981308 76.4018692,23.3878505 L76.8457944,22.4299065 L77.1962617,21.682243 C77.1962617,21.6588785 77.2196262,21.6588785 77.2196262,21.635514 L77.3364486,21.4018692 L74.3925234,15.2803738 Z" id="Shape" fill="#692D55"></path>
                <path d="M87.0093458,0.607476636 C87.0093458,0.280373832 86.7523364,0.023364486 86.4252336,0.023364486 L82.0794393,0.023364486 C81.8457944,0.023364486 81.635514,0.163551402 81.5420561,0.35046729 L76.4953271,10.8878505 L74.3925234,15.2803738 L77.3364486,21.4485981 L87.0093458,1.23831776 L87.0093458,0.607476636 Z" id="Shape" fill="#F53C3C"></path>
                <path d="M66.7523364,0.023364486 L62.4065421,0.023364486 C62.0794393,0.023364486 61.8224299,0.280373832 61.8224299,0.607476636 L61.8224299,24.2523364 C61.8224299,24.5794393 62.0794393,24.8364486 62.4065421,24.8364486 L66.5420561,24.8364486 C66.8691589,24.8364486 67.1261682,24.5794393 67.1261682,24.2523364 L67.1261682,12.8271028 L67.1261682,12.8271028 L67.1261682,0.163551402 C67.0093458,0.0700934579 66.8691589,0.023364486 66.7523364,0.023364486 Z" id="Shape" fill="#F53C3C"></path>
            </g>
        </g>
    </g>
</svg>